<mxfile host="app.diagrams.net" modified="2024-04-26T06:31:38.758Z" agent="Mozilla/5.0 (Windows NT 10.0; Win64; x64) AppleWebKit/537.36 (KHTML, like Gecko) Chrome/124.0.0.0 Safari/537.36" etag="CMRQDejNtW5wjhOiCzRa" version="24.3.0" type="github">
  <diagram id="C5RBs43oDa-KdzZeNtuy" name="Page-1">
    <mxGraphModel dx="1434" dy="1907" grid="1" gridSize="10" guides="1" tooltips="1" connect="1" arrows="1" fold="1" page="1" pageScale="1" pageWidth="827" pageHeight="1169" math="0" shadow="0">
      <root>
        <mxCell id="WIyWlLk6GJQsqaUBKTNV-0" />
        <mxCell id="WIyWlLk6GJQsqaUBKTNV-1" parent="WIyWlLk6GJQsqaUBKTNV-0" />
        <mxCell id="WIyWlLk6GJQsqaUBKTNV-2" value="" style="rounded=0;html=1;jettySize=auto;orthogonalLoop=1;fontSize=11;endArrow=block;endFill=0;endSize=8;strokeWidth=1;shadow=0;labelBackgroundColor=none;edgeStyle=orthogonalEdgeStyle;entryX=0.5;entryY=0;entryDx=0;entryDy=0;" parent="WIyWlLk6GJQsqaUBKTNV-1" source="WIyWlLk6GJQsqaUBKTNV-3" target="xOVSz6dbR93FTunpoiB2-1" edge="1">
          <mxGeometry relative="1" as="geometry">
            <mxPoint x="160" y="110" as="targetPoint" />
          </mxGeometry>
        </mxCell>
        <mxCell id="WIyWlLk6GJQsqaUBKTNV-3" value="MainScene" style="rounded=1;whiteSpace=wrap;html=1;fontSize=12;glass=0;strokeWidth=1;shadow=0;" parent="WIyWlLk6GJQsqaUBKTNV-1" vertex="1">
          <mxGeometry x="100" y="60" width="120" height="40" as="geometry" />
        </mxCell>
        <mxCell id="xOVSz6dbR93FTunpoiB2-5" style="edgeStyle=orthogonalEdgeStyle;rounded=0;orthogonalLoop=1;jettySize=auto;html=1;exitX=0;exitY=0.5;exitDx=0;exitDy=0;entryX=0.5;entryY=0;entryDx=0;entryDy=0;" edge="1" parent="WIyWlLk6GJQsqaUBKTNV-1" source="xOVSz6dbR93FTunpoiB2-1" target="xOVSz6dbR93FTunpoiB2-4">
          <mxGeometry relative="1" as="geometry" />
        </mxCell>
        <mxCell id="xOVSz6dbR93FTunpoiB2-8" value="Yes" style="edgeLabel;html=1;align=center;verticalAlign=middle;resizable=0;points=[];" vertex="1" connectable="0" parent="xOVSz6dbR93FTunpoiB2-5">
          <mxGeometry x="-0.1778" y="-3" relative="1" as="geometry">
            <mxPoint x="-3" y="-7" as="offset" />
          </mxGeometry>
        </mxCell>
        <mxCell id="xOVSz6dbR93FTunpoiB2-6" style="edgeStyle=orthogonalEdgeStyle;rounded=0;orthogonalLoop=1;jettySize=auto;html=1;exitX=1;exitY=0.5;exitDx=0;exitDy=0;entryX=0.5;entryY=0;entryDx=0;entryDy=0;" edge="1" parent="WIyWlLk6GJQsqaUBKTNV-1" source="xOVSz6dbR93FTunpoiB2-1" target="xOVSz6dbR93FTunpoiB2-3">
          <mxGeometry relative="1" as="geometry" />
        </mxCell>
        <mxCell id="xOVSz6dbR93FTunpoiB2-7" value="No" style="edgeLabel;html=1;align=center;verticalAlign=middle;resizable=0;points=[];" vertex="1" connectable="0" parent="xOVSz6dbR93FTunpoiB2-6">
          <mxGeometry x="-0.1111" y="2" relative="1" as="geometry">
            <mxPoint x="-2" y="-10" as="offset" />
          </mxGeometry>
        </mxCell>
        <mxCell id="xOVSz6dbR93FTunpoiB2-1" value="&lt;font style=&quot;font-size: 10px;&quot;&gt;저장된 데이터가&lt;/font&gt;&lt;div style=&quot;font-size: 10px;&quot;&gt;&lt;font style=&quot;font-size: 10px;&quot;&gt;있는가?&lt;/font&gt;&lt;/div&gt;" style="rhombus;whiteSpace=wrap;html=1;shadow=0;fontFamily=Helvetica;fontSize=12;align=center;strokeWidth=1;spacing=6;spacingTop=4;verticalAlign=middle;horizontal=1;labelPosition=center;verticalLabelPosition=middle;" vertex="1" parent="WIyWlLk6GJQsqaUBKTNV-1">
          <mxGeometry x="110" y="130" width="100" height="80" as="geometry" />
        </mxCell>
        <mxCell id="xOVSz6dbR93FTunpoiB2-11" style="edgeStyle=orthogonalEdgeStyle;rounded=0;orthogonalLoop=1;jettySize=auto;html=1;exitX=0.5;exitY=1;exitDx=0;exitDy=0;entryX=0.5;entryY=0;entryDx=0;entryDy=0;" edge="1" parent="WIyWlLk6GJQsqaUBKTNV-1" source="xOVSz6dbR93FTunpoiB2-3" target="xOVSz6dbR93FTunpoiB2-9">
          <mxGeometry relative="1" as="geometry" />
        </mxCell>
        <mxCell id="xOVSz6dbR93FTunpoiB2-3" value="게임 데이터 생성" style="rounded=1;whiteSpace=wrap;html=1;fontSize=12;glass=0;strokeWidth=1;shadow=0;" vertex="1" parent="WIyWlLk6GJQsqaUBKTNV-1">
          <mxGeometry x="190" y="200" width="120" height="40" as="geometry" />
        </mxCell>
        <mxCell id="xOVSz6dbR93FTunpoiB2-4" value="불러오기" style="rounded=1;whiteSpace=wrap;html=1;fontSize=12;glass=0;strokeWidth=1;shadow=0;" vertex="1" parent="WIyWlLk6GJQsqaUBKTNV-1">
          <mxGeometry x="10" y="200" width="120" height="40" as="geometry" />
        </mxCell>
        <mxCell id="xOVSz6dbR93FTunpoiB2-14" style="edgeStyle=orthogonalEdgeStyle;rounded=0;orthogonalLoop=1;jettySize=auto;html=1;exitX=0;exitY=0.5;exitDx=0;exitDy=0;entryX=0.5;entryY=0;entryDx=0;entryDy=0;" edge="1" parent="WIyWlLk6GJQsqaUBKTNV-1" source="xOVSz6dbR93FTunpoiB2-9" target="xOVSz6dbR93FTunpoiB2-13">
          <mxGeometry relative="1" as="geometry" />
        </mxCell>
        <mxCell id="xOVSz6dbR93FTunpoiB2-15" style="edgeStyle=orthogonalEdgeStyle;rounded=0;orthogonalLoop=1;jettySize=auto;html=1;exitX=1;exitY=0.5;exitDx=0;exitDy=0;" edge="1" parent="WIyWlLk6GJQsqaUBKTNV-1" source="xOVSz6dbR93FTunpoiB2-9" target="xOVSz6dbR93FTunpoiB2-12">
          <mxGeometry relative="1" as="geometry" />
        </mxCell>
        <mxCell id="xOVSz6dbR93FTunpoiB2-9" value="&lt;span style=&quot;font-size: 10px;&quot;&gt;저장된&amp;nbsp;&lt;/span&gt;&lt;div&gt;&lt;span style=&quot;font-size: 10px;&quot;&gt;진행사항이&lt;/span&gt;&lt;div&gt;&lt;span style=&quot;font-size: 10px;&quot;&gt;있는가?&lt;/span&gt;&lt;/div&gt;&lt;/div&gt;" style="rhombus;whiteSpace=wrap;html=1;shadow=0;fontFamily=Helvetica;fontSize=12;align=center;strokeWidth=1;spacing=6;spacingTop=-4;verticalAlign=middle;horizontal=1;labelPosition=center;verticalLabelPosition=middle;" vertex="1" parent="WIyWlLk6GJQsqaUBKTNV-1">
          <mxGeometry x="110" y="280" width="100" height="80" as="geometry" />
        </mxCell>
        <mxCell id="xOVSz6dbR93FTunpoiB2-10" style="edgeStyle=orthogonalEdgeStyle;rounded=0;orthogonalLoop=1;jettySize=auto;html=1;exitX=0.5;exitY=1;exitDx=0;exitDy=0;entryX=0.5;entryY=0;entryDx=0;entryDy=0;" edge="1" parent="WIyWlLk6GJQsqaUBKTNV-1" source="xOVSz6dbR93FTunpoiB2-4" target="xOVSz6dbR93FTunpoiB2-9">
          <mxGeometry relative="1" as="geometry" />
        </mxCell>
        <mxCell id="xOVSz6dbR93FTunpoiB2-58" style="edgeStyle=orthogonalEdgeStyle;rounded=0;orthogonalLoop=1;jettySize=auto;html=1;" edge="1" parent="WIyWlLk6GJQsqaUBKTNV-1" source="xOVSz6dbR93FTunpoiB2-12" target="xOVSz6dbR93FTunpoiB2-17">
          <mxGeometry relative="1" as="geometry" />
        </mxCell>
        <mxCell id="xOVSz6dbR93FTunpoiB2-12" value="이어서 버튼 비활성화" style="rounded=1;whiteSpace=wrap;html=1;fontSize=12;glass=0;strokeWidth=1;shadow=0;" vertex="1" parent="WIyWlLk6GJQsqaUBKTNV-1">
          <mxGeometry x="190" y="350" width="120" height="40" as="geometry" />
        </mxCell>
        <mxCell id="xOVSz6dbR93FTunpoiB2-59" style="edgeStyle=orthogonalEdgeStyle;rounded=0;orthogonalLoop=1;jettySize=auto;html=1;entryX=0.5;entryY=0;entryDx=0;entryDy=0;" edge="1" parent="WIyWlLk6GJQsqaUBKTNV-1" source="xOVSz6dbR93FTunpoiB2-13" target="xOVSz6dbR93FTunpoiB2-17">
          <mxGeometry relative="1" as="geometry" />
        </mxCell>
        <mxCell id="xOVSz6dbR93FTunpoiB2-13" value="이어서 버튼 출력" style="rounded=1;whiteSpace=wrap;html=1;fontSize=12;glass=0;strokeWidth=1;shadow=0;" vertex="1" parent="WIyWlLk6GJQsqaUBKTNV-1">
          <mxGeometry x="10" y="350" width="120" height="40" as="geometry" />
        </mxCell>
        <mxCell id="xOVSz6dbR93FTunpoiB2-22" style="edgeStyle=orthogonalEdgeStyle;rounded=0;orthogonalLoop=1;jettySize=auto;html=1;exitX=0;exitY=0.5;exitDx=0;exitDy=0;" edge="1" parent="WIyWlLk6GJQsqaUBKTNV-1" source="xOVSz6dbR93FTunpoiB2-17" target="xOVSz6dbR93FTunpoiB2-20">
          <mxGeometry relative="1" as="geometry" />
        </mxCell>
        <mxCell id="xOVSz6dbR93FTunpoiB2-25" value="새 게임" style="edgeLabel;html=1;align=center;verticalAlign=middle;resizable=0;points=[];" vertex="1" connectable="0" parent="xOVSz6dbR93FTunpoiB2-22">
          <mxGeometry x="-0.2" y="1" relative="1" as="geometry">
            <mxPoint y="-14" as="offset" />
          </mxGeometry>
        </mxCell>
        <mxCell id="xOVSz6dbR93FTunpoiB2-23" style="edgeStyle=orthogonalEdgeStyle;rounded=0;orthogonalLoop=1;jettySize=auto;html=1;exitX=1;exitY=0.5;exitDx=0;exitDy=0;" edge="1" parent="WIyWlLk6GJQsqaUBKTNV-1" source="xOVSz6dbR93FTunpoiB2-17" target="xOVSz6dbR93FTunpoiB2-21">
          <mxGeometry relative="1" as="geometry" />
        </mxCell>
        <mxCell id="xOVSz6dbR93FTunpoiB2-24" value="이어서" style="edgeLabel;html=1;align=center;verticalAlign=middle;resizable=0;points=[];" vertex="1" connectable="0" parent="xOVSz6dbR93FTunpoiB2-23">
          <mxGeometry x="-0.3217" relative="1" as="geometry">
            <mxPoint x="1" y="-8" as="offset" />
          </mxGeometry>
        </mxCell>
        <mxCell id="xOVSz6dbR93FTunpoiB2-17" value="&lt;span style=&quot;font-size: 10px;&quot;&gt;이어서&amp;nbsp;&lt;/span&gt;&lt;div&gt;&lt;span style=&quot;font-size: 10px;&quot;&gt;/&lt;/span&gt;&lt;/div&gt;&lt;div&gt;&lt;span style=&quot;font-size: 10px;&quot;&gt;새게임&lt;/span&gt;&lt;/div&gt;" style="rhombus;whiteSpace=wrap;html=1;shadow=0;fontFamily=Helvetica;fontSize=12;align=center;strokeWidth=1;spacing=6;spacingTop=-4;verticalAlign=middle;horizontal=1;labelPosition=center;verticalLabelPosition=middle;" vertex="1" parent="WIyWlLk6GJQsqaUBKTNV-1">
          <mxGeometry x="110" y="430" width="100" height="80" as="geometry" />
        </mxCell>
        <mxCell id="xOVSz6dbR93FTunpoiB2-31" style="edgeStyle=orthogonalEdgeStyle;rounded=0;orthogonalLoop=1;jettySize=auto;html=1;" edge="1" parent="WIyWlLk6GJQsqaUBKTNV-1" source="xOVSz6dbR93FTunpoiB2-20" target="xOVSz6dbR93FTunpoiB2-30">
          <mxGeometry relative="1" as="geometry" />
        </mxCell>
        <mxCell id="xOVSz6dbR93FTunpoiB2-20" value="처음부터 시작" style="rounded=1;whiteSpace=wrap;html=1;fontSize=12;glass=0;strokeWidth=1;shadow=0;" vertex="1" parent="WIyWlLk6GJQsqaUBKTNV-1">
          <mxGeometry x="10" y="510" width="120" height="40" as="geometry" />
        </mxCell>
        <mxCell id="xOVSz6dbR93FTunpoiB2-29" style="edgeStyle=orthogonalEdgeStyle;rounded=0;orthogonalLoop=1;jettySize=auto;html=1;exitX=0.5;exitY=1;exitDx=0;exitDy=0;entryX=0.5;entryY=0;entryDx=0;entryDy=0;" edge="1" parent="WIyWlLk6GJQsqaUBKTNV-1" source="xOVSz6dbR93FTunpoiB2-21" target="xOVSz6dbR93FTunpoiB2-28">
          <mxGeometry relative="1" as="geometry" />
        </mxCell>
        <mxCell id="xOVSz6dbR93FTunpoiB2-21" value="저장된 세이브 포인트에서 시작" style="rounded=1;whiteSpace=wrap;html=1;fontSize=12;glass=0;strokeWidth=1;shadow=0;" vertex="1" parent="WIyWlLk6GJQsqaUBKTNV-1">
          <mxGeometry x="190" y="510" width="120" height="40" as="geometry" />
        </mxCell>
        <mxCell id="xOVSz6dbR93FTunpoiB2-35" style="edgeStyle=orthogonalEdgeStyle;rounded=0;orthogonalLoop=1;jettySize=auto;html=1;" edge="1" parent="WIyWlLk6GJQsqaUBKTNV-1" source="xOVSz6dbR93FTunpoiB2-26" target="xOVSz6dbR93FTunpoiB2-34">
          <mxGeometry relative="1" as="geometry" />
        </mxCell>
        <mxCell id="xOVSz6dbR93FTunpoiB2-26" value="TutorialScene" style="rounded=1;whiteSpace=wrap;html=1;fontSize=12;glass=0;strokeWidth=1;shadow=0;" vertex="1" parent="WIyWlLk6GJQsqaUBKTNV-1">
          <mxGeometry x="100" y="910" width="120" height="40" as="geometry" />
        </mxCell>
        <mxCell id="xOVSz6dbR93FTunpoiB2-37" style="edgeStyle=orthogonalEdgeStyle;rounded=0;orthogonalLoop=1;jettySize=auto;html=1;" edge="1" parent="WIyWlLk6GJQsqaUBKTNV-1" source="xOVSz6dbR93FTunpoiB2-28" target="xOVSz6dbR93FTunpoiB2-26">
          <mxGeometry relative="1" as="geometry">
            <Array as="points">
              <mxPoint x="250" y="650" />
              <mxPoint x="160" y="650" />
            </Array>
          </mxGeometry>
        </mxCell>
        <mxCell id="xOVSz6dbR93FTunpoiB2-28" value="Tutorial 혹은&lt;div&gt;BossScene으로 이동&lt;/div&gt;" style="rounded=1;whiteSpace=wrap;html=1;fontSize=12;glass=0;strokeWidth=1;shadow=0;" vertex="1" parent="WIyWlLk6GJQsqaUBKTNV-1">
          <mxGeometry x="190" y="580" width="120" height="40" as="geometry" />
        </mxCell>
        <mxCell id="xOVSz6dbR93FTunpoiB2-30" value="Tutorial로 이동" style="rounded=1;whiteSpace=wrap;html=1;fontSize=12;glass=0;strokeWidth=1;shadow=0;" vertex="1" parent="WIyWlLk6GJQsqaUBKTNV-1">
          <mxGeometry x="10" y="580" width="120" height="40" as="geometry" />
        </mxCell>
        <mxCell id="xOVSz6dbR93FTunpoiB2-39" style="edgeStyle=orthogonalEdgeStyle;rounded=0;orthogonalLoop=1;jettySize=auto;html=1;entryX=0;entryY=0.75;entryDx=0;entryDy=0;exitX=1;exitY=0.5;exitDx=0;exitDy=0;" edge="1" parent="WIyWlLk6GJQsqaUBKTNV-1" source="xOVSz6dbR93FTunpoiB2-34" target="xOVSz6dbR93FTunpoiB2-38">
          <mxGeometry relative="1" as="geometry">
            <mxPoint x="80" y="970" as="sourcePoint" />
            <mxPoint x="180" y="1090" as="targetPoint" />
          </mxGeometry>
        </mxCell>
        <mxCell id="xOVSz6dbR93FTunpoiB2-43" value="Yes" style="edgeLabel;html=1;align=center;verticalAlign=middle;resizable=0;points=[];" vertex="1" connectable="0" parent="xOVSz6dbR93FTunpoiB2-39">
          <mxGeometry x="-0.48" y="3" relative="1" as="geometry">
            <mxPoint x="7" y="4" as="offset" />
          </mxGeometry>
        </mxCell>
        <mxCell id="xOVSz6dbR93FTunpoiB2-41" style="edgeStyle=orthogonalEdgeStyle;rounded=0;orthogonalLoop=1;jettySize=auto;html=1;exitX=0;exitY=0.5;exitDx=0;exitDy=0;entryX=0;entryY=0.5;entryDx=0;entryDy=0;" edge="1" parent="WIyWlLk6GJQsqaUBKTNV-1" source="xOVSz6dbR93FTunpoiB2-34" target="xOVSz6dbR93FTunpoiB2-26">
          <mxGeometry relative="1" as="geometry">
            <mxPoint x="79.96000000000001" y="1010" as="sourcePoint" />
            <mxPoint x="89.96000000000001" y="770" as="targetPoint" />
          </mxGeometry>
        </mxCell>
        <mxCell id="xOVSz6dbR93FTunpoiB2-42" value="No" style="edgeLabel;html=1;align=center;verticalAlign=middle;resizable=0;points=[];" vertex="1" connectable="0" parent="xOVSz6dbR93FTunpoiB2-41">
          <mxGeometry y="-2" relative="1" as="geometry">
            <mxPoint x="7" as="offset" />
          </mxGeometry>
        </mxCell>
        <mxCell id="xOVSz6dbR93FTunpoiB2-34" value="&lt;span style=&quot;font-size: 10px;&quot;&gt;배틀 지역에&lt;/span&gt;&lt;div&gt;&lt;span style=&quot;font-size: 10px;&quot;&gt;&amp;nbsp;진입 했는가?&lt;/span&gt;&lt;/div&gt;" style="rhombus;whiteSpace=wrap;html=1;shadow=0;fontFamily=Helvetica;fontSize=12;align=center;strokeWidth=1;spacing=6;spacingTop=-4;verticalAlign=middle;horizontal=1;labelPosition=center;verticalLabelPosition=middle;" vertex="1" parent="WIyWlLk6GJQsqaUBKTNV-1">
          <mxGeometry x="110" y="980" width="100" height="80" as="geometry" />
        </mxCell>
        <mxCell id="xOVSz6dbR93FTunpoiB2-36" style="edgeStyle=orthogonalEdgeStyle;rounded=0;orthogonalLoop=1;jettySize=auto;html=1;entryX=0.5;entryY=0;entryDx=0;entryDy=0;" edge="1" parent="WIyWlLk6GJQsqaUBKTNV-1" source="xOVSz6dbR93FTunpoiB2-30" target="xOVSz6dbR93FTunpoiB2-26">
          <mxGeometry relative="1" as="geometry">
            <Array as="points">
              <mxPoint x="70" y="650" />
              <mxPoint x="160" y="650" />
            </Array>
          </mxGeometry>
        </mxCell>
        <mxCell id="xOVSz6dbR93FTunpoiB2-45" style="edgeStyle=orthogonalEdgeStyle;rounded=0;orthogonalLoop=1;jettySize=auto;html=1;" edge="1" parent="WIyWlLk6GJQsqaUBKTNV-1" source="xOVSz6dbR93FTunpoiB2-38" target="xOVSz6dbR93FTunpoiB2-44">
          <mxGeometry relative="1" as="geometry" />
        </mxCell>
        <mxCell id="xOVSz6dbR93FTunpoiB2-38" value="배틀 개시" style="rounded=1;whiteSpace=wrap;html=1;fontSize=12;glass=0;strokeWidth=1;shadow=0;" vertex="1" parent="WIyWlLk6GJQsqaUBKTNV-1">
          <mxGeometry x="260" y="990" width="120" height="40" as="geometry" />
        </mxCell>
        <mxCell id="xOVSz6dbR93FTunpoiB2-52" style="edgeStyle=orthogonalEdgeStyle;rounded=0;orthogonalLoop=1;jettySize=auto;html=1;exitX=1;exitY=0.5;exitDx=0;exitDy=0;entryX=0;entryY=0.5;entryDx=0;entryDy=0;" edge="1" parent="WIyWlLk6GJQsqaUBKTNV-1" source="xOVSz6dbR93FTunpoiB2-44" target="xOVSz6dbR93FTunpoiB2-51">
          <mxGeometry relative="1" as="geometry" />
        </mxCell>
        <mxCell id="xOVSz6dbR93FTunpoiB2-57" value="Yes" style="edgeLabel;html=1;align=center;verticalAlign=middle;resizable=0;points=[];" vertex="1" connectable="0" parent="xOVSz6dbR93FTunpoiB2-52">
          <mxGeometry x="0.44" y="2" relative="1" as="geometry">
            <mxPoint x="-15" y="13" as="offset" />
          </mxGeometry>
        </mxCell>
        <mxCell id="xOVSz6dbR93FTunpoiB2-44" value="모든 적이&lt;div&gt;처치되었는가?&lt;/div&gt;" style="rhombus;whiteSpace=wrap;html=1;shadow=0;fontFamily=Helvetica;fontSize=12;align=center;strokeWidth=1;spacing=6;spacingTop=-4;verticalAlign=middle;horizontal=1;labelPosition=center;verticalLabelPosition=middle;" vertex="1" parent="WIyWlLk6GJQsqaUBKTNV-1">
          <mxGeometry x="270" y="1055" width="100" height="80" as="geometry" />
        </mxCell>
        <mxCell id="xOVSz6dbR93FTunpoiB2-49" style="edgeStyle=orthogonalEdgeStyle;rounded=0;orthogonalLoop=1;jettySize=auto;html=1;exitX=0;exitY=0.5;exitDx=0;exitDy=0;" edge="1" parent="WIyWlLk6GJQsqaUBKTNV-1" source="xOVSz6dbR93FTunpoiB2-44" target="xOVSz6dbR93FTunpoiB2-44">
          <mxGeometry relative="1" as="geometry" />
        </mxCell>
        <mxCell id="xOVSz6dbR93FTunpoiB2-50" value="No" style="edgeLabel;html=1;align=center;verticalAlign=middle;resizable=0;points=[];" vertex="1" connectable="0" parent="xOVSz6dbR93FTunpoiB2-49">
          <mxGeometry x="-0.3294" y="1" relative="1" as="geometry">
            <mxPoint x="-13" y="-7" as="offset" />
          </mxGeometry>
        </mxCell>
        <mxCell id="xOVSz6dbR93FTunpoiB2-53" style="edgeStyle=orthogonalEdgeStyle;rounded=0;orthogonalLoop=1;jettySize=auto;html=1;exitX=0.5;exitY=0;exitDx=0;exitDy=0;entryX=0.5;entryY=1;entryDx=0;entryDy=0;" edge="1" parent="WIyWlLk6GJQsqaUBKTNV-1" source="xOVSz6dbR93FTunpoiB2-51" target="xOVSz6dbR93FTunpoiB2-55">
          <mxGeometry relative="1" as="geometry" />
        </mxCell>
        <mxCell id="xOVSz6dbR93FTunpoiB2-54" value="&amp;nbsp;No" style="edgeLabel;html=1;align=center;verticalAlign=middle;resizable=0;points=[];" vertex="1" connectable="0" parent="xOVSz6dbR93FTunpoiB2-53">
          <mxGeometry x="-0.2174" y="-4" relative="1" as="geometry">
            <mxPoint x="8" y="-4" as="offset" />
          </mxGeometry>
        </mxCell>
        <mxCell id="xOVSz6dbR93FTunpoiB2-61" style="edgeStyle=orthogonalEdgeStyle;rounded=0;orthogonalLoop=1;jettySize=auto;html=1;exitX=1;exitY=0.5;exitDx=0;exitDy=0;" edge="1" parent="WIyWlLk6GJQsqaUBKTNV-1" source="xOVSz6dbR93FTunpoiB2-51" target="xOVSz6dbR93FTunpoiB2-60">
          <mxGeometry relative="1" as="geometry" />
        </mxCell>
        <mxCell id="xOVSz6dbR93FTunpoiB2-51" value="WaveCount가&lt;div&gt;0인가?&lt;/div&gt;" style="rhombus;whiteSpace=wrap;html=1;shadow=0;fontFamily=Helvetica;fontSize=12;align=center;strokeWidth=1;spacing=6;spacingTop=6;verticalAlign=middle;horizontal=1;labelPosition=center;verticalLabelPosition=middle;" vertex="1" parent="WIyWlLk6GJQsqaUBKTNV-1">
          <mxGeometry x="420" y="1055" width="100" height="80" as="geometry" />
        </mxCell>
        <mxCell id="xOVSz6dbR93FTunpoiB2-56" style="edgeStyle=orthogonalEdgeStyle;rounded=0;orthogonalLoop=1;jettySize=auto;html=1;exitX=0;exitY=0.5;exitDx=0;exitDy=0;entryX=1;entryY=0.5;entryDx=0;entryDy=0;" edge="1" parent="WIyWlLk6GJQsqaUBKTNV-1" source="xOVSz6dbR93FTunpoiB2-55" target="xOVSz6dbR93FTunpoiB2-38">
          <mxGeometry relative="1" as="geometry" />
        </mxCell>
        <mxCell id="xOVSz6dbR93FTunpoiB2-55" value="WaveCount 감소" style="rounded=1;whiteSpace=wrap;html=1;fontSize=12;glass=0;strokeWidth=1;shadow=0;" vertex="1" parent="WIyWlLk6GJQsqaUBKTNV-1">
          <mxGeometry x="410" y="990" width="120" height="40" as="geometry" />
        </mxCell>
        <mxCell id="xOVSz6dbR93FTunpoiB2-80" style="edgeStyle=orthogonalEdgeStyle;rounded=0;orthogonalLoop=1;jettySize=auto;html=1;entryX=0.5;entryY=1;entryDx=0;entryDy=0;" edge="1" parent="WIyWlLk6GJQsqaUBKTNV-1" source="xOVSz6dbR93FTunpoiB2-82" target="xOVSz6dbR93FTunpoiB2-81">
          <mxGeometry relative="1" as="geometry">
            <mxPoint x="737" y="900" as="targetPoint" />
          </mxGeometry>
        </mxCell>
        <mxCell id="xOVSz6dbR93FTunpoiB2-86" value="Yes" style="edgeLabel;html=1;align=center;verticalAlign=middle;resizable=0;points=[];" vertex="1" connectable="0" parent="xOVSz6dbR93FTunpoiB2-80">
          <mxGeometry x="0.16" y="-3" relative="1" as="geometry">
            <mxPoint x="-23" y="9" as="offset" />
          </mxGeometry>
        </mxCell>
        <mxCell id="xOVSz6dbR93FTunpoiB2-60" value="배틀 종료" style="rounded=1;whiteSpace=wrap;html=1;fontSize=12;glass=0;strokeWidth=1;shadow=0;" vertex="1" parent="WIyWlLk6GJQsqaUBKTNV-1">
          <mxGeometry x="550" y="1075" width="120" height="40" as="geometry" />
        </mxCell>
        <mxCell id="xOVSz6dbR93FTunpoiB2-70" style="edgeStyle=orthogonalEdgeStyle;rounded=0;orthogonalLoop=1;jettySize=auto;html=1;" edge="1" parent="WIyWlLk6GJQsqaUBKTNV-1" source="xOVSz6dbR93FTunpoiB2-62" target="xOVSz6dbR93FTunpoiB2-67">
          <mxGeometry relative="1" as="geometry" />
        </mxCell>
        <mxCell id="xOVSz6dbR93FTunpoiB2-79" value="Yes" style="edgeLabel;html=1;align=center;verticalAlign=middle;resizable=0;points=[];" vertex="1" connectable="0" parent="xOVSz6dbR93FTunpoiB2-70">
          <mxGeometry x="0.36" y="-1" relative="1" as="geometry">
            <mxPoint x="9" y="14" as="offset" />
          </mxGeometry>
        </mxCell>
        <mxCell id="xOVSz6dbR93FTunpoiB2-62" value="&lt;span style=&quot;font-size: 10px;&quot;&gt;플레이어의 체력이&lt;/span&gt;&lt;div&gt;&lt;span style=&quot;font-size: 10px;&quot;&gt;0이 되었는가?&lt;/span&gt;&lt;/div&gt;" style="rhombus;whiteSpace=wrap;html=1;shadow=0;fontFamily=Helvetica;fontSize=12;align=center;strokeWidth=1;spacing=6;spacingTop=6;verticalAlign=middle;horizontal=1;labelPosition=center;verticalLabelPosition=middle;" vertex="1" parent="WIyWlLk6GJQsqaUBKTNV-1">
          <mxGeometry x="380" y="700" width="100" height="80" as="geometry" />
        </mxCell>
        <mxCell id="xOVSz6dbR93FTunpoiB2-73" style="edgeStyle=orthogonalEdgeStyle;rounded=0;orthogonalLoop=1;jettySize=auto;html=1;entryX=0.5;entryY=1;entryDx=0;entryDy=0;" edge="1" parent="WIyWlLk6GJQsqaUBKTNV-1" source="xOVSz6dbR93FTunpoiB2-67" target="xOVSz6dbR93FTunpoiB2-71">
          <mxGeometry relative="1" as="geometry" />
        </mxCell>
        <mxCell id="xOVSz6dbR93FTunpoiB2-67" value="DeadScene" style="rounded=1;whiteSpace=wrap;html=1;fontSize=12;glass=0;strokeWidth=1;shadow=0;" vertex="1" parent="WIyWlLk6GJQsqaUBKTNV-1">
          <mxGeometry x="370" y="610" width="120" height="40" as="geometry" />
        </mxCell>
        <mxCell id="xOVSz6dbR93FTunpoiB2-74" style="edgeStyle=orthogonalEdgeStyle;rounded=0;orthogonalLoop=1;jettySize=auto;html=1;entryX=1;entryY=0.5;entryDx=0;entryDy=0;" edge="1" parent="WIyWlLk6GJQsqaUBKTNV-1" source="xOVSz6dbR93FTunpoiB2-71" target="xOVSz6dbR93FTunpoiB2-21">
          <mxGeometry relative="1" as="geometry">
            <mxPoint x="380" y="526" as="targetPoint" />
          </mxGeometry>
        </mxCell>
        <mxCell id="xOVSz6dbR93FTunpoiB2-77" value="재 시작" style="edgeLabel;html=1;align=center;verticalAlign=middle;resizable=0;points=[];" vertex="1" connectable="0" parent="xOVSz6dbR93FTunpoiB2-74">
          <mxGeometry x="-0.5455" y="4" relative="1" as="geometry">
            <mxPoint x="1046" y="630" as="offset" />
          </mxGeometry>
        </mxCell>
        <mxCell id="xOVSz6dbR93FTunpoiB2-78" value="재 시작" style="edgeLabel;html=1;align=center;verticalAlign=middle;resizable=0;points=[];" vertex="1" connectable="0" parent="xOVSz6dbR93FTunpoiB2-74">
          <mxGeometry x="-0.6727" relative="1" as="geometry">
            <mxPoint x="-1" y="30" as="offset" />
          </mxGeometry>
        </mxCell>
        <mxCell id="xOVSz6dbR93FTunpoiB2-75" style="edgeStyle=orthogonalEdgeStyle;rounded=0;orthogonalLoop=1;jettySize=auto;html=1;entryX=1;entryY=0.5;entryDx=0;entryDy=0;" edge="1" parent="WIyWlLk6GJQsqaUBKTNV-1" source="xOVSz6dbR93FTunpoiB2-71" target="WIyWlLk6GJQsqaUBKTNV-3">
          <mxGeometry relative="1" as="geometry">
            <Array as="points">
              <mxPoint x="430" y="80" />
            </Array>
          </mxGeometry>
        </mxCell>
        <mxCell id="xOVSz6dbR93FTunpoiB2-76" value="타이틀로" style="edgeLabel;html=1;align=center;verticalAlign=middle;resizable=0;points=[];" vertex="1" connectable="0" parent="xOVSz6dbR93FTunpoiB2-75">
          <mxGeometry x="-0.7846" y="-3" relative="1" as="geometry">
            <mxPoint x="21" as="offset" />
          </mxGeometry>
        </mxCell>
        <mxCell id="xOVSz6dbR93FTunpoiB2-71" value="&lt;span style=&quot;font-size: 10px;&quot;&gt;타이틀로&lt;/span&gt;&lt;div&gt;&lt;span style=&quot;font-size: 10px;&quot;&gt;/&lt;/span&gt;&lt;/div&gt;&lt;div&gt;&lt;span style=&quot;font-size: 10px;&quot;&gt;재 시작&lt;/span&gt;&lt;/div&gt;" style="rhombus;whiteSpace=wrap;html=1;shadow=0;fontFamily=Helvetica;fontSize=12;align=center;strokeWidth=1;spacing=6;spacingTop=6;verticalAlign=middle;horizontal=1;labelPosition=center;verticalLabelPosition=middle;" vertex="1" parent="WIyWlLk6GJQsqaUBKTNV-1">
          <mxGeometry x="380" y="490" width="100" height="80" as="geometry" />
        </mxCell>
        <mxCell id="xOVSz6dbR93FTunpoiB2-106" style="edgeStyle=orthogonalEdgeStyle;rounded=0;orthogonalLoop=1;jettySize=auto;html=1;entryX=0.5;entryY=1;entryDx=0;entryDy=0;" edge="1" parent="WIyWlLk6GJQsqaUBKTNV-1" source="xOVSz6dbR93FTunpoiB2-81" target="xOVSz6dbR93FTunpoiB2-89">
          <mxGeometry relative="1" as="geometry" />
        </mxCell>
        <mxCell id="xOVSz6dbR93FTunpoiB2-107" value="Yes" style="edgeLabel;html=1;align=center;verticalAlign=middle;resizable=0;points=[];" vertex="1" connectable="0" parent="xOVSz6dbR93FTunpoiB2-106">
          <mxGeometry x="0.1" relative="1" as="geometry">
            <mxPoint x="15" as="offset" />
          </mxGeometry>
        </mxCell>
        <mxCell id="xOVSz6dbR93FTunpoiB2-81" value="BossScene" style="rounded=1;whiteSpace=wrap;html=1;fontSize=12;glass=0;strokeWidth=1;shadow=0;" vertex="1" parent="WIyWlLk6GJQsqaUBKTNV-1">
          <mxGeometry x="677" y="840" width="120" height="40" as="geometry" />
        </mxCell>
        <mxCell id="xOVSz6dbR93FTunpoiB2-83" value="" style="edgeStyle=orthogonalEdgeStyle;rounded=0;orthogonalLoop=1;jettySize=auto;html=1;entryX=0.5;entryY=1;entryDx=0;entryDy=0;" edge="1" parent="WIyWlLk6GJQsqaUBKTNV-1" source="xOVSz6dbR93FTunpoiB2-60" target="xOVSz6dbR93FTunpoiB2-82">
          <mxGeometry relative="1" as="geometry">
            <mxPoint x="610" y="880" as="targetPoint" />
            <mxPoint x="610" y="1075" as="sourcePoint" />
          </mxGeometry>
        </mxCell>
        <mxCell id="xOVSz6dbR93FTunpoiB2-84" style="edgeStyle=orthogonalEdgeStyle;rounded=0;orthogonalLoop=1;jettySize=auto;html=1;entryX=0.5;entryY=0;entryDx=0;entryDy=0;" edge="1" parent="WIyWlLk6GJQsqaUBKTNV-1" source="xOVSz6dbR93FTunpoiB2-82" target="xOVSz6dbR93FTunpoiB2-60">
          <mxGeometry relative="1" as="geometry">
            <Array as="points">
              <mxPoint x="610" y="970" />
            </Array>
          </mxGeometry>
        </mxCell>
        <mxCell id="xOVSz6dbR93FTunpoiB2-85" value="No" style="edgeLabel;html=1;align=center;verticalAlign=middle;resizable=0;points=[];" vertex="1" connectable="0" parent="xOVSz6dbR93FTunpoiB2-84">
          <mxGeometry x="0.1657" y="3" relative="1" as="geometry">
            <mxPoint x="7" y="-12" as="offset" />
          </mxGeometry>
        </mxCell>
        <mxCell id="xOVSz6dbR93FTunpoiB2-82" value="엘리베이터에&lt;div&gt;탑승했는가?&lt;/div&gt;" style="rhombus;whiteSpace=wrap;html=1;shadow=0;fontFamily=Helvetica;fontSize=12;align=center;strokeWidth=1;spacing=6;spacingTop=6;verticalAlign=middle;horizontal=1;labelPosition=center;verticalLabelPosition=middle;" vertex="1" parent="WIyWlLk6GJQsqaUBKTNV-1">
          <mxGeometry x="687" y="930" width="100" height="80" as="geometry" />
        </mxCell>
        <mxCell id="xOVSz6dbR93FTunpoiB2-87" style="edgeStyle=orthogonalEdgeStyle;rounded=0;orthogonalLoop=1;jettySize=auto;html=1;entryX=0.5;entryY=1;entryDx=0;entryDy=0;exitX=1;exitY=0.5;exitDx=0;exitDy=0;" edge="1" source="xOVSz6dbR93FTunpoiB2-89" target="xOVSz6dbR93FTunpoiB2-91" parent="WIyWlLk6GJQsqaUBKTNV-1">
          <mxGeometry relative="1" as="geometry">
            <mxPoint x="657" y="710" as="sourcePoint" />
            <mxPoint x="757" y="830" as="targetPoint" />
            <Array as="points">
              <mxPoint x="737" y="760" />
            </Array>
          </mxGeometry>
        </mxCell>
        <mxCell id="xOVSz6dbR93FTunpoiB2-88" value="Yes" style="edgeLabel;html=1;align=center;verticalAlign=middle;resizable=0;points=[];" vertex="1" connectable="0" parent="xOVSz6dbR93FTunpoiB2-87">
          <mxGeometry x="-0.48" y="3" relative="1" as="geometry">
            <mxPoint x="7" y="4" as="offset" />
          </mxGeometry>
        </mxCell>
        <mxCell id="xOVSz6dbR93FTunpoiB2-108" style="edgeStyle=orthogonalEdgeStyle;rounded=0;orthogonalLoop=1;jettySize=auto;html=1;entryX=0;entryY=0.75;entryDx=0;entryDy=0;" edge="1" parent="WIyWlLk6GJQsqaUBKTNV-1" source="xOVSz6dbR93FTunpoiB2-89" target="xOVSz6dbR93FTunpoiB2-81">
          <mxGeometry relative="1" as="geometry">
            <Array as="points">
              <mxPoint x="657" y="760" />
              <mxPoint x="657" y="870" />
            </Array>
          </mxGeometry>
        </mxCell>
        <mxCell id="xOVSz6dbR93FTunpoiB2-109" value="No" style="edgeLabel;html=1;align=center;verticalAlign=middle;resizable=0;points=[];" vertex="1" connectable="0" parent="xOVSz6dbR93FTunpoiB2-108">
          <mxGeometry x="-0.4125" y="-1" relative="1" as="geometry">
            <mxPoint x="1" y="-27" as="offset" />
          </mxGeometry>
        </mxCell>
        <mxCell id="xOVSz6dbR93FTunpoiB2-89" value="&lt;span style=&quot;font-size: 10px;&quot;&gt;배틀 지역에&lt;/span&gt;&lt;div&gt;&lt;span style=&quot;font-size: 10px;&quot;&gt;&amp;nbsp;진입 했는가?&lt;/span&gt;&lt;/div&gt;" style="rhombus;whiteSpace=wrap;html=1;shadow=0;fontFamily=Helvetica;fontSize=12;align=center;strokeWidth=1;spacing=6;spacingTop=-4;verticalAlign=middle;horizontal=1;labelPosition=center;verticalLabelPosition=middle;" vertex="1" parent="WIyWlLk6GJQsqaUBKTNV-1">
          <mxGeometry x="687" y="720" width="100" height="80" as="geometry" />
        </mxCell>
        <mxCell id="xOVSz6dbR93FTunpoiB2-90" style="edgeStyle=orthogonalEdgeStyle;rounded=0;orthogonalLoop=1;jettySize=auto;html=1;" edge="1" source="xOVSz6dbR93FTunpoiB2-91" target="xOVSz6dbR93FTunpoiB2-94" parent="WIyWlLk6GJQsqaUBKTNV-1">
          <mxGeometry relative="1" as="geometry" />
        </mxCell>
        <mxCell id="xOVSz6dbR93FTunpoiB2-91" value="배틀 개시" style="rounded=1;whiteSpace=wrap;html=1;fontSize=12;glass=0;strokeWidth=1;shadow=0;" vertex="1" parent="WIyWlLk6GJQsqaUBKTNV-1">
          <mxGeometry x="677" y="640" width="120" height="40" as="geometry" />
        </mxCell>
        <mxCell id="xOVSz6dbR93FTunpoiB2-104" style="edgeStyle=orthogonalEdgeStyle;rounded=0;orthogonalLoop=1;jettySize=auto;html=1;" edge="1" parent="WIyWlLk6GJQsqaUBKTNV-1" source="xOVSz6dbR93FTunpoiB2-94">
          <mxGeometry relative="1" as="geometry">
            <mxPoint x="737" y="460" as="targetPoint" />
          </mxGeometry>
        </mxCell>
        <mxCell id="xOVSz6dbR93FTunpoiB2-105" value="Yes" style="edgeLabel;html=1;align=center;verticalAlign=middle;resizable=0;points=[];" vertex="1" connectable="0" parent="xOVSz6dbR93FTunpoiB2-104">
          <mxGeometry x="-0.0892" y="-1" relative="1" as="geometry">
            <mxPoint x="-18" as="offset" />
          </mxGeometry>
        </mxCell>
        <mxCell id="xOVSz6dbR93FTunpoiB2-94" value="보스가&amp;nbsp;&lt;div&gt;피격당했는가?&lt;/div&gt;" style="rhombus;whiteSpace=wrap;html=1;shadow=0;fontFamily=Helvetica;fontSize=12;align=center;strokeWidth=1;spacing=6;spacingTop=-4;verticalAlign=middle;horizontal=1;labelPosition=center;verticalLabelPosition=middle;" vertex="1" parent="WIyWlLk6GJQsqaUBKTNV-1">
          <mxGeometry x="687" y="510" width="100" height="80" as="geometry" />
        </mxCell>
        <mxCell id="xOVSz6dbR93FTunpoiB2-95" style="edgeStyle=orthogonalEdgeStyle;rounded=0;orthogonalLoop=1;jettySize=auto;html=1;exitX=0;exitY=0.5;exitDx=0;exitDy=0;" edge="1" source="xOVSz6dbR93FTunpoiB2-94" target="xOVSz6dbR93FTunpoiB2-94" parent="WIyWlLk6GJQsqaUBKTNV-1">
          <mxGeometry relative="1" as="geometry" />
        </mxCell>
        <mxCell id="xOVSz6dbR93FTunpoiB2-96" value="No" style="edgeLabel;html=1;align=center;verticalAlign=middle;resizable=0;points=[];" vertex="1" connectable="0" parent="xOVSz6dbR93FTunpoiB2-95">
          <mxGeometry x="-0.3294" y="1" relative="1" as="geometry">
            <mxPoint x="-13" y="-7" as="offset" />
          </mxGeometry>
        </mxCell>
        <mxCell id="xOVSz6dbR93FTunpoiB2-112" style="edgeStyle=orthogonalEdgeStyle;rounded=0;orthogonalLoop=1;jettySize=auto;html=1;entryX=0;entryY=0.5;entryDx=0;entryDy=0;" edge="1" parent="WIyWlLk6GJQsqaUBKTNV-1" source="xOVSz6dbR93FTunpoiB2-110" target="xOVSz6dbR93FTunpoiB2-113">
          <mxGeometry relative="1" as="geometry" />
        </mxCell>
        <mxCell id="xOVSz6dbR93FTunpoiB2-115" value="Yes" style="edgeLabel;html=1;align=center;verticalAlign=middle;resizable=0;points=[];" vertex="1" connectable="0" parent="xOVSz6dbR93FTunpoiB2-112">
          <mxGeometry x="-0.05" y="-1" relative="1" as="geometry">
            <mxPoint x="-7" y="9" as="offset" />
          </mxGeometry>
        </mxCell>
        <mxCell id="xOVSz6dbR93FTunpoiB2-118" value="" style="edgeStyle=orthogonalEdgeStyle;rounded=0;orthogonalLoop=1;jettySize=auto;html=1;exitX=0.5;exitY=0;exitDx=0;exitDy=0;" edge="1" parent="WIyWlLk6GJQsqaUBKTNV-1" source="xOVSz6dbR93FTunpoiB2-110" target="xOVSz6dbR93FTunpoiB2-117">
          <mxGeometry relative="1" as="geometry" />
        </mxCell>
        <mxCell id="xOVSz6dbR93FTunpoiB2-125" value="No" style="edgeLabel;html=1;align=center;verticalAlign=middle;resizable=0;points=[];" vertex="1" connectable="0" parent="xOVSz6dbR93FTunpoiB2-118">
          <mxGeometry x="-0.1" y="1" relative="1" as="geometry">
            <mxPoint x="-11" as="offset" />
          </mxGeometry>
        </mxCell>
        <mxCell id="xOVSz6dbR93FTunpoiB2-110" value="QTE가&lt;div&gt;발생하는가?&lt;/div&gt;" style="rhombus;whiteSpace=wrap;html=1;shadow=0;fontFamily=Helvetica;fontSize=12;align=center;strokeWidth=1;spacing=6;spacingTop=-4;verticalAlign=middle;horizontal=1;labelPosition=center;verticalLabelPosition=middle;" vertex="1" parent="WIyWlLk6GJQsqaUBKTNV-1">
          <mxGeometry x="687" y="390" width="100" height="80" as="geometry" />
        </mxCell>
        <mxCell id="xOVSz6dbR93FTunpoiB2-128" style="edgeStyle=orthogonalEdgeStyle;rounded=0;orthogonalLoop=1;jettySize=auto;html=1;entryX=1;entryY=0.5;entryDx=0;entryDy=0;" edge="1" parent="WIyWlLk6GJQsqaUBKTNV-1" source="xOVSz6dbR93FTunpoiB2-111" target="xOVSz6dbR93FTunpoiB2-117">
          <mxGeometry relative="1" as="geometry" />
        </mxCell>
        <mxCell id="xOVSz6dbR93FTunpoiB2-131" value="Yes" style="edgeLabel;html=1;align=center;verticalAlign=middle;resizable=0;points=[];" vertex="1" connectable="0" parent="xOVSz6dbR93FTunpoiB2-128">
          <mxGeometry x="-0.1781" y="-2" relative="1" as="geometry">
            <mxPoint x="-3" y="-18" as="offset" />
          </mxGeometry>
        </mxCell>
        <mxCell id="xOVSz6dbR93FTunpoiB2-129" style="edgeStyle=orthogonalEdgeStyle;rounded=0;orthogonalLoop=1;jettySize=auto;html=1;exitX=1;exitY=0.5;exitDx=0;exitDy=0;entryX=1;entryY=0.75;entryDx=0;entryDy=0;" edge="1" parent="WIyWlLk6GJQsqaUBKTNV-1" source="xOVSz6dbR93FTunpoiB2-111" target="xOVSz6dbR93FTunpoiB2-91">
          <mxGeometry relative="1" as="geometry" />
        </mxCell>
        <mxCell id="xOVSz6dbR93FTunpoiB2-130" value="No" style="edgeLabel;html=1;align=center;verticalAlign=middle;resizable=0;points=[];" vertex="1" connectable="0" parent="xOVSz6dbR93FTunpoiB2-129">
          <mxGeometry x="-0.7478" y="3" relative="1" as="geometry">
            <mxPoint y="-61" as="offset" />
          </mxGeometry>
        </mxCell>
        <mxCell id="xOVSz6dbR93FTunpoiB2-111" value="QTE를&lt;div&gt;성공했는가?&lt;/div&gt;" style="rhombus;whiteSpace=wrap;html=1;shadow=0;fontFamily=Helvetica;fontSize=12;align=center;strokeWidth=1;spacing=6;spacingTop=-4;verticalAlign=middle;horizontal=1;labelPosition=center;verticalLabelPosition=middle;" vertex="1" parent="WIyWlLk6GJQsqaUBKTNV-1">
          <mxGeometry x="860" y="270" width="100" height="80" as="geometry" />
        </mxCell>
        <mxCell id="xOVSz6dbR93FTunpoiB2-127" style="edgeStyle=orthogonalEdgeStyle;rounded=0;orthogonalLoop=1;jettySize=auto;html=1;entryX=0.5;entryY=1;entryDx=0;entryDy=0;" edge="1" parent="WIyWlLk6GJQsqaUBKTNV-1" source="xOVSz6dbR93FTunpoiB2-113" target="xOVSz6dbR93FTunpoiB2-111">
          <mxGeometry relative="1" as="geometry" />
        </mxCell>
        <mxCell id="xOVSz6dbR93FTunpoiB2-113" value="QTE 발생" style="rounded=1;whiteSpace=wrap;html=1;fontSize=12;glass=0;strokeWidth=1;shadow=0;" vertex="1" parent="WIyWlLk6GJQsqaUBKTNV-1">
          <mxGeometry x="850" y="410" width="120" height="40" as="geometry" />
        </mxCell>
        <mxCell id="xOVSz6dbR93FTunpoiB2-132" style="edgeStyle=orthogonalEdgeStyle;rounded=0;orthogonalLoop=1;jettySize=auto;html=1;entryX=0.5;entryY=1;entryDx=0;entryDy=0;" edge="1" parent="WIyWlLk6GJQsqaUBKTNV-1" source="xOVSz6dbR93FTunpoiB2-117" target="xOVSz6dbR93FTunpoiB2-124">
          <mxGeometry relative="1" as="geometry" />
        </mxCell>
        <mxCell id="xOVSz6dbR93FTunpoiB2-133" value="Yes" style="edgeLabel;html=1;align=center;verticalAlign=middle;resizable=0;points=[];" vertex="1" connectable="0" parent="xOVSz6dbR93FTunpoiB2-132">
          <mxGeometry x="-0.4419" y="4" relative="1" as="geometry">
            <mxPoint x="-13" y="-9" as="offset" />
          </mxGeometry>
        </mxCell>
        <mxCell id="xOVSz6dbR93FTunpoiB2-135" style="edgeStyle=orthogonalEdgeStyle;rounded=0;orthogonalLoop=1;jettySize=auto;html=1;entryX=0.5;entryY=0;entryDx=0;entryDy=0;" edge="1" parent="WIyWlLk6GJQsqaUBKTNV-1" source="xOVSz6dbR93FTunpoiB2-117" target="xOVSz6dbR93FTunpoiB2-137">
          <mxGeometry relative="1" as="geometry">
            <Array as="points">
              <mxPoint x="610" y="310" />
            </Array>
          </mxGeometry>
        </mxCell>
        <mxCell id="xOVSz6dbR93FTunpoiB2-136" value="No" style="edgeLabel;html=1;align=center;verticalAlign=middle;resizable=0;points=[];" vertex="1" connectable="0" parent="xOVSz6dbR93FTunpoiB2-135">
          <mxGeometry x="-0.9312" relative="1" as="geometry">
            <mxPoint x="-10" y="-10" as="offset" />
          </mxGeometry>
        </mxCell>
        <mxCell id="xOVSz6dbR93FTunpoiB2-117" value="웨이브 카운트가&lt;div&gt;0인가?&lt;/div&gt;" style="rhombus;whiteSpace=wrap;html=1;shadow=0;fontFamily=Helvetica;fontSize=12;align=center;strokeWidth=1;spacing=6;spacingTop=14;verticalAlign=middle;horizontal=1;labelPosition=center;verticalLabelPosition=middle;" vertex="1" parent="WIyWlLk6GJQsqaUBKTNV-1">
          <mxGeometry x="687" y="270" width="100" height="80" as="geometry" />
        </mxCell>
        <mxCell id="xOVSz6dbR93FTunpoiB2-140" value="" style="edgeStyle=orthogonalEdgeStyle;rounded=0;orthogonalLoop=1;jettySize=auto;html=1;" edge="1" parent="WIyWlLk6GJQsqaUBKTNV-1" source="xOVSz6dbR93FTunpoiB2-124" target="xOVSz6dbR93FTunpoiB2-139">
          <mxGeometry relative="1" as="geometry" />
        </mxCell>
        <mxCell id="xOVSz6dbR93FTunpoiB2-124" value="배틀 종료" style="rounded=1;whiteSpace=wrap;html=1;fontSize=12;glass=0;strokeWidth=1;shadow=0;" vertex="1" parent="WIyWlLk6GJQsqaUBKTNV-1">
          <mxGeometry x="677" y="190" width="120" height="40" as="geometry" />
        </mxCell>
        <mxCell id="xOVSz6dbR93FTunpoiB2-138" style="edgeStyle=orthogonalEdgeStyle;rounded=0;orthogonalLoop=1;jettySize=auto;html=1;entryX=0;entryY=0.5;entryDx=0;entryDy=0;" edge="1" parent="WIyWlLk6GJQsqaUBKTNV-1" source="xOVSz6dbR93FTunpoiB2-137" target="xOVSz6dbR93FTunpoiB2-91">
          <mxGeometry relative="1" as="geometry">
            <Array as="points">
              <mxPoint x="610" y="660" />
            </Array>
          </mxGeometry>
        </mxCell>
        <mxCell id="xOVSz6dbR93FTunpoiB2-137" value="웨이브 카운트 감소" style="rounded=1;whiteSpace=wrap;html=1;fontSize=12;glass=0;strokeWidth=1;shadow=0;" vertex="1" parent="WIyWlLk6GJQsqaUBKTNV-1">
          <mxGeometry x="550" y="410" width="120" height="40" as="geometry" />
        </mxCell>
        <mxCell id="xOVSz6dbR93FTunpoiB2-148" style="edgeStyle=orthogonalEdgeStyle;rounded=0;orthogonalLoop=1;jettySize=auto;html=1;exitX=0.5;exitY=0;exitDx=0;exitDy=0;entryX=0.5;entryY=1;entryDx=0;entryDy=0;" edge="1" parent="WIyWlLk6GJQsqaUBKTNV-1" source="xOVSz6dbR93FTunpoiB2-139" target="xOVSz6dbR93FTunpoiB2-143">
          <mxGeometry relative="1" as="geometry" />
        </mxCell>
        <mxCell id="xOVSz6dbR93FTunpoiB2-139" value="ClearScene" style="whiteSpace=wrap;html=1;rounded=1;glass=0;strokeWidth=1;shadow=0;" vertex="1" parent="WIyWlLk6GJQsqaUBKTNV-1">
          <mxGeometry x="677" y="100" width="120" height="40" as="geometry" />
        </mxCell>
        <mxCell id="xOVSz6dbR93FTunpoiB2-145" style="edgeStyle=orthogonalEdgeStyle;rounded=0;orthogonalLoop=1;jettySize=auto;html=1;" edge="1" parent="WIyWlLk6GJQsqaUBKTNV-1" source="xOVSz6dbR93FTunpoiB2-143">
          <mxGeometry relative="1" as="geometry">
            <mxPoint x="640" y="40" as="targetPoint" />
          </mxGeometry>
        </mxCell>
        <mxCell id="xOVSz6dbR93FTunpoiB2-147" value="Yes" style="edgeLabel;html=1;align=center;verticalAlign=middle;resizable=0;points=[];" vertex="1" connectable="0" parent="xOVSz6dbR93FTunpoiB2-145">
          <mxGeometry x="-0.0738" y="2" relative="1" as="geometry">
            <mxPoint y="7" as="offset" />
          </mxGeometry>
        </mxCell>
        <mxCell id="xOVSz6dbR93FTunpoiB2-149" style="edgeStyle=orthogonalEdgeStyle;rounded=0;orthogonalLoop=1;jettySize=auto;html=1;entryX=0.5;entryY=1;entryDx=0;entryDy=0;" edge="1" parent="WIyWlLk6GJQsqaUBKTNV-1" source="xOVSz6dbR93FTunpoiB2-143" target="xOVSz6dbR93FTunpoiB2-151">
          <mxGeometry relative="1" as="geometry">
            <mxPoint x="737" y="-40" as="targetPoint" />
          </mxGeometry>
        </mxCell>
        <mxCell id="xOVSz6dbR93FTunpoiB2-143" value="초회&lt;div&gt;클리어인가?&lt;/div&gt;" style="rhombus;whiteSpace=wrap;html=1;shadow=0;fontFamily=Helvetica;fontSize=12;align=center;strokeWidth=1;spacing=6;spacingTop=-4;verticalAlign=middle;horizontal=1;labelPosition=center;verticalLabelPosition=middle;" vertex="1" parent="WIyWlLk6GJQsqaUBKTNV-1">
          <mxGeometry x="687" width="100" height="80" as="geometry" />
        </mxCell>
        <mxCell id="xOVSz6dbR93FTunpoiB2-160" style="edgeStyle=orthogonalEdgeStyle;rounded=0;orthogonalLoop=1;jettySize=auto;html=1;entryX=0.5;entryY=0;entryDx=0;entryDy=0;" edge="1" parent="WIyWlLk6GJQsqaUBKTNV-1" source="xOVSz6dbR93FTunpoiB2-146" target="WIyWlLk6GJQsqaUBKTNV-3">
          <mxGeometry relative="1" as="geometry" />
        </mxCell>
        <mxCell id="xOVSz6dbR93FTunpoiB2-146" value="전설 난이도 개방" style="whiteSpace=wrap;html=1;rounded=1;glass=0;strokeWidth=1;shadow=0;" vertex="1" parent="WIyWlLk6GJQsqaUBKTNV-1">
          <mxGeometry x="520" y="20" width="120" height="40" as="geometry" />
        </mxCell>
        <mxCell id="xOVSz6dbR93FTunpoiB2-155" style="edgeStyle=orthogonalEdgeStyle;rounded=0;orthogonalLoop=1;jettySize=auto;html=1;entryX=0.5;entryY=1;entryDx=0;entryDy=0;" edge="1" parent="WIyWlLk6GJQsqaUBKTNV-1" source="xOVSz6dbR93FTunpoiB2-151" target="xOVSz6dbR93FTunpoiB2-153">
          <mxGeometry relative="1" as="geometry" />
        </mxCell>
        <mxCell id="xOVSz6dbR93FTunpoiB2-156" value="Yes" style="edgeLabel;html=1;align=center;verticalAlign=middle;resizable=0;points=[];" vertex="1" connectable="0" parent="xOVSz6dbR93FTunpoiB2-155">
          <mxGeometry x="0.24" y="-4" relative="1" as="geometry">
            <mxPoint x="11" as="offset" />
          </mxGeometry>
        </mxCell>
        <mxCell id="xOVSz6dbR93FTunpoiB2-157" style="edgeStyle=orthogonalEdgeStyle;rounded=0;orthogonalLoop=1;jettySize=auto;html=1;" edge="1" parent="WIyWlLk6GJQsqaUBKTNV-1" source="xOVSz6dbR93FTunpoiB2-151" target="WIyWlLk6GJQsqaUBKTNV-3">
          <mxGeometry relative="1" as="geometry" />
        </mxCell>
        <mxCell id="xOVSz6dbR93FTunpoiB2-158" value="No" style="edgeLabel;html=1;align=center;verticalAlign=middle;resizable=0;points=[];" vertex="1" connectable="0" parent="xOVSz6dbR93FTunpoiB2-157">
          <mxGeometry x="-0.922" y="-1" relative="1" as="geometry">
            <mxPoint x="-11" y="-19" as="offset" />
          </mxGeometry>
        </mxCell>
        <mxCell id="xOVSz6dbR93FTunpoiB2-151" value="전설 난이도&lt;div&gt;클리어인가?&lt;/div&gt;" style="rhombus;whiteSpace=wrap;html=1;shadow=0;fontFamily=Helvetica;fontSize=12;align=center;strokeWidth=1;spacing=6;spacingTop=1;verticalAlign=middle;horizontal=1;labelPosition=center;verticalLabelPosition=middle;" vertex="1" parent="WIyWlLk6GJQsqaUBKTNV-1">
          <mxGeometry x="687" y="-120" width="100" height="80" as="geometry" />
        </mxCell>
        <mxCell id="xOVSz6dbR93FTunpoiB2-159" style="edgeStyle=orthogonalEdgeStyle;rounded=0;orthogonalLoop=1;jettySize=auto;html=1;" edge="1" parent="WIyWlLk6GJQsqaUBKTNV-1" source="xOVSz6dbR93FTunpoiB2-153">
          <mxGeometry relative="1" as="geometry">
            <mxPoint x="160" y="60" as="targetPoint" />
          </mxGeometry>
        </mxCell>
        <mxCell id="xOVSz6dbR93FTunpoiB2-153" value="엔딩 크레딧" style="whiteSpace=wrap;html=1;rounded=1;glass=0;strokeWidth=1;shadow=0;" vertex="1" parent="WIyWlLk6GJQsqaUBKTNV-1">
          <mxGeometry x="677" y="-200" width="120" height="40" as="geometry" />
        </mxCell>
      </root>
    </mxGraphModel>
  </diagram>
</mxfile>
